<svg class="svg-icon" style="width: 1em;height: 1em;vertical-align: middle;fill: currentColor;overflow: hidden;" viewBox="0 0 1024 1024" version="1.1" xmlns="http://www.w3.org/2000/svg"><path d="M725.333333 853.333333H106.666667A106.794667 106.794667 0 0 1 0 746.666667v-640C0 47.872 47.872 0 106.666667 0h341.333333a21.333333 21.333333 0 0 1 20.181333 14.421333l277.333334 810.666667A21.418667 21.418667 0 0 1 725.333333 853.333333zM106.666667 42.666667C71.381333 42.666667 42.666667 71.381333 42.666667 106.666667v640c0 35.285333 28.714667 64 64 64h588.8L432.768 42.666667H106.666667z"  /><path d="M917.333333 1024h-341.333333a21.333333 21.333333 0 0 1-19.968-13.824l-64-170.666667a21.333333 21.333333 0 0 1 39.936-15.018666L590.805333 981.333333H917.333333c35.285333 0 64-28.714667 64-64v-640c0-35.285333-28.714667-64-64-64H512a21.333333 21.333333 0 0 1 0-42.666666h405.333333C976.128 170.666667 1024 218.538667 1024 277.333333v640c0 58.794667-47.872 106.666667-106.666667 106.666667z"  /><path d="M576 1024a21.333333 21.333333 0 0 1-16.042667-35.413333l149.333334-170.666667a21.333333 21.333333 0 1 1 32.128 28.117333l-149.333334 170.666667A21.418667 21.418667 0 0 1 576 1024zM405.333333 597.333333a21.290667 21.290667 0 0 1-20.096-14.165333L298.666667 340.778667l-86.570667 242.389333a21.333333 21.333333 0 0 1-40.192-14.336l106.666667-298.666667c6.058667-16.981333 34.133333-16.981333 40.149333 0l106.666667 298.666667A21.333333 21.333333 0 0 1 405.333333 597.333333z"  /><path d="M341.333333 469.333333H256a21.333333 21.333333 0 0 1 0-42.666666h85.333333a21.333333 21.333333 0 0 1 0 42.666666zM917.333333 469.333333h-298.666666a21.333333 21.333333 0 0 1 0-42.666666h298.666666a21.333333 21.333333 0 0 1 0 42.666666z"  /><path d="M746.666667 469.333333a21.333333 21.333333 0 0 1-21.333334-21.333333v-42.666667a21.333333 21.333333 0 0 1 42.666667 0v42.666667a21.333333 21.333333 0 0 1-21.333333 21.333333zM682.666667 725.333333a21.248 21.248 0 0 1-12.373334-38.698666c93.397333-66.346667 161.706667-201.685333 161.706667-238.592a21.333333 21.333333 0 0 1 42.666667 0c0 56.234667-82.218667 204.16-179.626667 273.408A21.632 21.632 0 0 1 682.666667 725.333333z"  /><path d="M853.333333 768a21.077333 21.077333 0 0 1-14.378666-5.589333c-15.488-14.165333-151.808-140.074667-176.042667-199.722667a21.333333 21.333333 0 0 1 39.509333-16.042667c17.450667 42.965333 125.269333 147.584 165.333334 184.277334A21.333333 21.333333 0 0 1 853.333333 768z"  /></svg>